<svg xmlns="http://www.w3.org/2000/svg" viewBox="0 0 90 90" aria-hidden="true" focusable="false">
  <g fill="currentColor">
    <path d="M71.794 60.125c-.425 0-.979-.151-1.639-.66l-11.862-8.671V39.235l11.884-8.686c1.024-.838 1.822-.747 2.303-.52.48.229 1.054.796 1.054 2.201v25.568c0 1.103-.345 1.831-1.023 2.165-.165.082-.407.162-.717.162zM60.293 49.778l11.063 8.087c.063.049.12.089.171.122.004-.055.006-.117.006-.188V32.23c0-.075-.002-.141-.007-.197-.038.028-.081.061-.128.099L60.293 40.25v9.528z"/>
    <path d="M25.275 60.119c-4.838 0-8.788-3.925-8.809-8.769V32.281c.03-1.319 1.088-2.376 2.408-2.408h27.823c.013 0 .025 0 .038 0 4.839 0 8.789 3.925 8.81 8.769v19.064c-.031 1.341-1.123 2.413-2.433 2.413H25.314c-.013 0-.026 0-.039 0zM18.467 32.319v19.027c.016 3.738 3.07 6.772 6.813 6.772h27.834c.233 0 .427-.196.433-.437V38.646c-.016-3.739-3.07-6.773-6.813-6.773H18.899c-.232.006-.422.193-.432.446z"/>
  </g>
</svg>
